<?xml version="1.0" encoding="utf-8"?>
<!-- Generator: Adobe Illustrator 27.5.0, SVG Export Plug-In . SVG Version: 6.00 Build 0)  -->
<svg version="1.1" id="_x2018_ëîé_x5F_1" xmlns="http://www.w3.org/2000/svg" xmlns:xlink="http://www.w3.org/1999/xlink"
	 x="0px" y="0px" viewBox="0 0 3000 2000" style="enable-background:new 0 0 3000 2000;" xml:space="preserve">
<rect style="fill:#FFFFFF;" width="3000" height="2000"/>
<rect x="0" y="1493.341" style="fill:#00AA6D;" width="506.884" height="506.659"/>
<rect x="502.768" y="1492.743" style="fill:#004B36;" width="504.264" height="507.257"/>
<rect x="1002.918" y="1495.736" style="fill:#E52C4B;" width="510.25" height="504.264"/>
<polygon style="fill:#AF2031;" points="1002.918,2000 1500.822,2000 1002.918,1495.735 "/>
<rect x="451.145" y="0" style="fill:#E52C4B;" width="554.391" height="540.176"/>
<rect y="500.148" style="fill:#E52C4B;" width="501.51" height="506.884"/>
<path style="fill:#AF2031;" d="M0,500.9L0,500.9l500.767,0l0,503.139h0C224.201,1004.039,0,778.776,0,500.9z"/>
<path style="fill:#591221;" d="M502.263,745.792L502.263,745.792c-137.734,0-249.389-111.655-249.389-249.389v0h249.389
	L502.263,745.792z"/>
<rect style="fill:#003323;" width="502.02" height="502.767"/>
<rect x="470.597" y="1002.543" style="fill:#630235;" width="532.943" height="495.286"/>
<rect x="1000.556" y="998.055" style="fill:#49002F;" width="500.079" height="499.774"/>
<path style="fill:#FFFFFF;" d="M1000.555,1496.333L1000.555,1496.333l0-249.384h0c137.217,0,248.452-111.655,248.452-249.388v0
	h248.448v0C1497.455,1273.026,1274.985,1496.333,1000.555,1496.333z"/>
<path style="fill:#FC107C;" d="M1000.673,1496.826L1000.673,1496.826l0-249.383h0c-138.01,0-249.89-111.655-249.89-249.388v0
	H500.898v0C500.898,1273.518,724.655,1496.826,1000.673,1496.826z"/>
<rect y="1002.544" style="fill:#003323;" width="500.896" height="495.286"/>
<polygon style="fill:#7C0641;" points="504.762,1004.039 1001.047,1004.039 1001.047,504.264 "/>
<path style="fill:#FFFFFF;" d="M751.155,946.55L751.155,946.55c112.114,0,203-90.886,203-202.999v-0.001
	c0-112.114-90.886-202.999-202.999-202.999h0c-112.114,0-203,90.886-203,202.999v0.001
	C548.156,855.664,639.042,946.55,751.155,946.55z"/>
<path style="fill:#BC0C60;" d="M839.678,832.074L839.678,832.074c48.89-48.89,48.89-128.156,0-177.046l0,0
	c-48.89-48.89-128.156-48.89-177.046,0l0,0c-48.89,48.89-48.89,128.156,0,177.046l0,0
	C711.522,880.964,790.789,880.964,839.678,832.074z"/>
<path style="fill:#7C0641;" d="M662.287,831.71c-48.534-48.918-48.426-127.911,0.345-176.683l0,0
	c48.771-48.771,127.765-48.879,176.683-0.345L662.287,831.71z"/>
<path style="fill:#7F182A;" d="M1001.048,503.138L1001.048,503.138l-249.636,0v0c0-138.939-111.768-251.572-249.641-251.572h0V0h0
	C777.514,0,1001.047,225.263,1001.048,503.138z"/>
<rect x="1001.048" style="fill:#F7F6F5;" width="499.587" height="511.745"/>
<rect x="1001.047" y="504.264" style="fill:#990750;" width="499.588" height="498.278"/>
<polygon style="fill:#FFFFFF;" points="1500.635,502.768 1000.741,502.768 1000.742,1004.04 "/>
<rect x="501.272" y="501.272" style="fill:#2B2B2B;" width="999.551" height="996.558"/>
<g>
	<path style="fill:#F7F6F5;" d="M222.294,355.387c8.471,3.24,22.121,7.346,39.33,7.774l1.304,77.317
		c1.127-0.07,2.252-0.143,3.373-0.232l1.3-77.09c17.118-0.441,30.716-4.515,39.221-7.768c-11.992,1.835-26.062,3.19-41.805,3.216
		C248.892,358.629,234.507,357.256,222.294,355.387z"/>
	<path style="fill:#F7F6F5;" d="M251.01,62.29c-104.54,0-189.286,84.746-189.286,189.286c0,88.591,60.865,162.958,143.057,183.59
		c1.126-40.531,2.601-66.195,4.423-78.203c0.385-2.534,1.726-10.736-0.37-20.94c-3.197-15.564-12.722-25.367-16.717-30.622
		c-18.026-23.707-36.052-47.414-54.078-71.122l-0.394-2.367c12.41-26.128,27.099-51.174,43.846-74.759
		c2.973-4.187,6.699-8.721,11.827-8.996c2.795-0.15,5.469,1.039,8.015,2.203c19.409,8.869,38.819,17.738,58.228,26.607
		c3.654,1.67,7.718,3.808,8.724,7.698c0.71,2.748-0.045,5.201-0.482,6.42c-7.818,21.8-12.854,35.843-23.127,37.077
		c-1.145,0.138-6.146-1.433-16.146-4.575c-7.333-2.303-9.465-3.206-11.822-4.988c-4.619-3.492-6.987-7.877-8.028-9.853
		c-1.25-2.373-2.078-4.654-2.631-6.691c0.165,2.897-0.212,6.652-2.253,10.5c-2.56,4.827-6.959,8.679-12.313,9.886
		c0.838,0.622,1.676,1.243,2.514,1.865c25.957,13.022,53.85,22.176,82.476,27.065c4.032,0.689,8.157,1.318,11.801,3.177
		c2.834,1.446,5.252,3.574,7.636,5.679c6.514,5.75,13.027,11.501,19.541,17.251c0.961,0.848,1.983,1.728,3.239,1.981
		c0.931,0.188,3.031,0.115,6.198-3.073c6.466-6.51,23.474-32.317,24.202-33.423c-2.153,8.432-4.306,16.864-6.458,25.296
		c0.797,4.01,1.602,9.87,1.272,16.936c-0.024,0.511-0.362,6.598-1.809,12.857c-3.977,17.194-18.488,30.273-23.464,47.204
		c-0.79,2.689-1.985,7.468-2.537,19.28c-0.728,15.589-0.16,39.821,0.869,64.51c72.02-26.775,123.335-96.127,123.335-177.47
		C440.296,147.036,355.55,62.29,251.01,62.29z M198.263,146.7l-0.53-0.46c5.68-11.058,11.361-22.116,17.042-33.174
		c0.77-2.172,2.279-5.257,5.276-6.677c2.629-1.246,5.955-0.997,19.283,6.174c10.522,5.661,15.799,8.558,16.581,11.779
		c1.092,4.498-2.154,7.941-8.53,17.838c-5.446,8.453-9.463,15.874-12.238,21.375C222.853,157.937,210.558,152.318,198.263,146.7z
		 M267.312,177.02c-9.19-3.705-24.675-6.911-27.322-12.986c-0.833-1.913,0.216-2.707,9.228-19.234
		c5.621-10.308,7.485-14.166,11.643-15.113c2.246-0.511,3.845,0.127,9.475,2.573c21.732,9.441,25.303,11.833,25.932,15.736
		c0.36,2.237-0.39,4.077-0.83,5.116c-6.126,14.484-23.347,42.463-26.574,47.688c0.589-6.054,1.178-12.109,1.768-18.163
		c0.047-0.486,0.372-1.779-0.232-3.071C269.662,177.994,268.032,177.311,267.312,177.02z M288.728,247.214
		c-8.899,5.001-28.546-5.081-30.598-16.899c-0.84-4.841,1.907-5.744,12.11-22.605c7.466-12.339,16.699-23.645,23.204-36.516
		c0.618-1.223,2.281-4.641,5.672-5.729c1.974-0.634,4.122-0.161,6.108,0.434c9.058,2.715,17.337,7.978,23.639,15.027
		c1.297,1.451,2.571,3.125,2.641,5.07c0.071,1.988-1.127,3.772-2.275,5.396c-12.43,17.585-24.861,35.171-37.291,52.757
		C291.477,244.8,290.523,246.205,288.728,247.214z M350.397,230.1c-4.835,5.29-18.785,21.37-26.633,32.441
		c-1.888,2.663-4.171,4.59-7.432,5.348c-9.169,2.13-21.938-8.322-21.37-17.031c0.156-2.39,1.196-4.122,2.491-5.824
		c5.309-6.98,9.81-14.545,14.99-21.622c12.905-17.631,19.357-26.446,20.694-28.736c0.393-0.673,1.634-2.861,3.702-3.169
		c1.307-0.194,2.406,0.442,2.98,0.785c8.694,5.197,10.458,6.537,10.458,6.537c6.506,4.942,7.093,5.337,8.807,6.867
		c3.325,2.969,4.988,4.454,5.377,5.613C366.032,216.002,358.919,220.776,350.397,230.1z"/>
	<path style="fill:#F7F6F5;" d="M205.857,200.176c-0.125-0.86-0.286-1.592-0.433-2.163
		C205.571,198.584,205.731,199.316,205.857,200.176z"/>
</g>
<g>
	<path style="fill:#F7F6F5;" d="M941.743,1220.325c17.494,6.692,45.685,15.171,81.226,16.054l2.693,159.677
		c2.327-0.145,4.651-0.295,6.967-0.48l2.685-159.208c35.352-0.912,63.435-9.324,81-16.043c-24.766,3.791-53.823,6.588-86.336,6.641
		C996.674,1227.021,966.965,1224.185,941.743,1220.325z"/>
	<path style="fill:#F7F6F5;" d="M1001.047,615.016c-215.898,0-390.917,175.02-390.917,390.917
		c0,182.961,125.699,336.544,295.445,379.153c2.325-83.704,5.371-136.708,9.134-161.506c0.794-5.233,3.565-22.171-0.763-43.246
		c-6.602-32.143-26.274-52.389-34.525-63.24c-37.227-48.96-74.455-97.921-111.683-146.882l-0.814-4.888
		c25.63-53.961,55.966-105.685,90.552-154.394c6.139-8.646,13.836-18.011,24.424-18.579c5.773-0.31,11.294,2.146,16.553,4.549
		c40.085,18.316,80.169,36.633,120.254,54.949c7.547,3.448,15.94,7.865,18.017,15.898c1.467,5.674-0.093,10.741-0.996,13.259
		c-16.145,45.021-26.545,74.023-47.762,76.572c-2.365,0.284-12.692-2.96-33.346-9.448c-15.145-4.757-19.547-6.622-24.415-10.302
		c-9.54-7.211-14.43-16.268-16.58-20.348c-2.582-4.9-4.292-9.612-5.433-13.819c0.341,5.983-0.438,13.739-4.652,21.685
		c-5.287,9.969-14.372,17.924-25.429,20.416c1.73,1.284,3.461,2.568,5.192,3.852c53.606,26.894,111.212,45.798,170.331,55.895
		c8.328,1.422,16.847,2.722,24.372,6.562c5.852,2.986,10.846,7.38,15.77,11.728c13.452,11.875,26.904,23.751,40.356,35.626
		c1.984,1.751,4.096,3.568,6.689,4.092c1.923,0.388,6.26,0.237,12.799-6.347c13.354-13.445,48.48-66.741,49.982-69.027
		c-4.446,17.414-8.892,34.828-13.338,52.242c1.646,8.282,3.309,20.384,2.628,34.976c-0.049,1.054-0.747,13.626-3.736,26.552
		c-8.214,35.509-38.181,62.52-48.459,97.488c-1.632,5.552-4.1,15.424-5.24,39.818c-1.504,32.194-0.33,82.24,1.796,133.228
		c148.738-55.297,254.713-198.522,254.713-366.515C1391.964,790.035,1216.945,615.016,1001.047,615.016z M892.113,789.34
		l-1.093-0.951c11.731-22.837,23.463-45.674,35.195-68.511c1.59-4.485,4.707-10.856,10.896-13.789
		c5.43-2.572,12.298-2.06,39.824,12.75c21.73,11.692,32.629,17.674,34.243,24.327c2.255,9.289-4.448,16.401-17.616,36.839
		c-11.247,17.456-19.543,32.784-25.274,44.145C942.897,812.548,917.505,800.944,892.113,789.34z M1034.714,851.96
		c-18.979-7.651-50.959-14.274-56.427-26.82c-1.721-3.95,0.447-5.591,19.057-39.721c11.608-21.289,15.458-29.257,24.045-31.211
		c4.638-1.055,7.94,0.263,19.567,5.314c44.881,19.498,52.256,24.439,53.554,32.498c0.744,4.62-0.806,8.421-1.714,10.567
		c-12.652,29.913-48.216,87.695-54.882,98.486c1.217-12.504,2.433-25.007,3.65-37.51c0.098-1.005,0.769-3.673-0.479-6.343
		C1039.568,853.97,1036.202,852.56,1034.714,851.96z M1078.943,996.924c-18.379,10.328-58.955-10.494-63.191-34.899
		c-1.735-9.997,3.939-11.862,25.01-46.684c15.419-25.482,34.486-48.833,47.921-75.414c1.277-2.526,4.712-9.585,11.714-11.832
		c4.077-1.309,8.512-0.333,12.614,0.897c18.706,5.606,35.805,16.476,48.82,31.034c2.679,2.997,5.31,6.455,5.454,10.471
		c0.147,4.106-2.328,7.789-4.699,11.144c-25.671,36.318-51.342,72.636-77.013,108.954
		C1084.622,991.94,1082.65,994.841,1078.943,996.924z M1206.303,961.58c-9.986,10.925-38.794,44.134-55.003,66.997
		c-3.899,5.499-8.613,9.48-15.349,11.044c-18.936,4.398-45.306-17.187-44.133-35.172c0.322-4.935,2.47-8.512,5.144-12.028
		c10.965-14.416,20.26-30.039,30.958-44.654c26.651-36.411,39.977-54.617,42.737-59.345c0.811-1.39,3.374-5.909,7.646-6.545
		c2.7-0.402,4.968,0.914,6.154,1.622c17.955,10.734,21.598,13.501,21.598,13.501c13.436,10.206,14.65,11.021,18.188,14.181
		c6.867,6.133,10.302,9.199,11.104,11.593C1238.593,932.465,1223.903,942.325,1206.303,961.58z"/>
	<path style="fill:#F7F6F5;" d="M907.796,899.78c-0.259-1.776-0.59-3.287-0.894-4.467
		C907.206,896.493,907.537,898.005,907.796,899.78z"/>
</g>
<g>
	<path style="fill:#111111;" d="M1166.248,455.366c4.678-31.906,7.434-50.699,13.077-74.852
		c6.553-28.051,9.269-30.237,15.449-59.939c7.918-38.057,8.438-57.642-1.552-63.998c-2.146-1.366-4.614-2.041-4.614-2.041
		c-8.607-2.354-14.794,4.516-21.324,4.988c-11.289,0.816-19.741-5.264-32.553-14.48c-12.403-8.921-30.7-22.083-29.16-36.666
		c0.673-6.373,4.904-10.831,2.506-13.9c-2.726-3.489-9.531,0.557-16.548-2.21c-3.274-1.291-8.452-4.798-12.612-18.227
		c-1.914-6.177-3.965-15.63-4.949-27.85c-22.025,33.4-34.857,73.399-34.857,116.4c0,86.786,52.222,161.363,126.95,194.057
		C1166.123,456.22,1166.185,455.795,1166.248,455.366z"/>
	<path style="fill:#111111;" d="M1250.841,50.86c-3.345,0-6.669,0.087-9.976,0.241c0.974,0.895,2.162,1.796,4.195,2.965
		c12.451,7.156,20.434,3.536,24.019,10.071c0.669,1.22,0.168,0.939,4.125,12.943c1.131,3.431,1.542,4.574,2.778,5.414
		c3.637,2.47,7.792-2.188,12.293-0.213c1.212,0.532,3.129,3.703,6.915,10.023c2.878,4.806,3.603,6.341,5.745,7.328
		c2.23,1.029,2.924,0.048,6.513,1.229c2.732,0.899,4.691,2.245,6.395,3.416c2.805,1.928,4.613,3.751,4.621,3.759
		c6.857,6.553,10.818,8.335,19.217,16.675c5.853,5.812,8.666,8.788,11.562,13.425c2.74,4.386,3.952,7.818,6.375,14.68
		c1.495,4.234,3.662,10.876,5.077,19.73c2.795,17.483-0.597,24.538,4.735,39.176c0.708,1.945,1.378,3.495,1.81,4.454
		c1.239,2.555,2.465,4.333,3.674,6.068c0.721,1.036,2.076,2.909,4.008,5.127c2.123,2.437,3.538,3.678,4.335,4.502
		c5.008,5.181,7,16.082,3.089,20.265c-2.822,3.018-6.39,3.983-6.39,3.983c-0.7,0.244-1.834,0.577-2.239,1.536
		c-0.336,0.796-0.067,1.67,0.572,3.168c0.645,1.513,1.332,2.578,1.524,2.87c0.209,0.319,0.412,0.593,0.67,0.947
		c0.778,1.069,1.38,1.803,1.485,1.935c0.945,1.184,2.198,4.354,1.634,7.875c-0.077,0.48-0.389,2.222-1.545,4.124
		c-1.232,2.026-2.92,3.41-4.181,4.025c-0.773,0.377-1.59,0.601-1.59,0.601c-0.609,0.167-1.151,0.247-1.584,0.286
		c1.286,1.16,1.874,1.837,2.167,2.251c0.043,0.06,0.213,0.319,0.478,0.654c0.406,0.514,0.706,0.888,0.755,0.948
		c2.274,2.73,2.108,5.892,2.108,5.892c-0.019,0.373-0.141,2.141-1.346,3.91c-0.342,0.502-1.014,1.466-2.251,2.167
		c-1.105,0.627-2.207,0.794-2.858,0.893c-1.265,0.192-1.506-0.017-2.215,0.274c-0.849,0.348-1.296,0.972-1.929,1.858
		c-0.749,1.047-1.689,2.362-1.641,4.065c0.015,0.525,0.125,0.513,0.575,2.229c0.465,1.777,0.747,2.854,0.875,3.805
		c0.243,1.81-0.066,3.201-0.405,4.728c-0.375,1.685-1.043,4.543-3.294,7.199c-1.078,1.272-2.093,1.996-3.21,2.781
		c-4.603,3.233-9.203,4.028-10.499,4.221c-3.349,0.5-5.914,0.163-8.206-0.155c-5.346-0.743-9.267-2.427-10.677-3.044
		c-24.584-10.754-27.395-13.129-31.352-11.644c-6.459,2.424-8.726,9.913-13.418,25.004c-5.81,18.685-5.329,15.998-6.338,20.135
		c-4.11,16.84-3.051,24.351-2.199,28.319c0.101,0.47,0.461,2.586,1.459,5.235c2.419,6.421,7.254,12.22,18.832,27.231
		c22.051,28.587,16.044,22.498,27.506,36.524c0.538,0.659,1.049,1.282,1.571,1.913c80.257-30.105,137.384-107.523,137.384-198.295
		C1462.572,145.655,1367.777,50.86,1250.841,50.86z"/>
</g>
<g>
	<path style="fill:#F7F6F5;" d="M670.306,1946.462c4.679-31.906,7.434-50.699,13.077-74.852
		c6.553-28.051,9.269-30.237,15.449-59.939c7.918-38.057,8.439-57.641-1.552-63.998c-2.147-1.366-4.614-2.041-4.614-2.041
		c-8.607-2.354-14.794,4.516-21.324,4.988c-11.289,0.816-19.741-5.264-32.553-14.48c-12.403-8.921-30.7-22.083-29.161-36.666
		c0.673-6.373,4.904-10.831,2.506-13.901c-2.726-3.49-9.531,0.557-16.548-2.21c-3.274-1.291-8.452-4.798-12.612-18.227
		c-1.914-6.177-3.965-15.63-4.949-27.85c-22.025,33.4-34.857,73.399-34.857,116.4c0,86.786,52.222,161.363,126.95,194.057
		C670.181,1947.316,670.244,1946.891,670.306,1946.462z"/>
	<path style="fill:#F7F6F5;" d="M754.9,1541.956c-3.345,0-6.669,0.087-9.976,0.241c0.974,0.895,2.162,1.796,4.195,2.965
		c12.451,7.156,20.434,3.536,24.019,10.071c0.669,1.22,0.168,0.939,4.125,12.943c1.131,3.431,1.542,4.574,2.778,5.414
		c3.637,2.47,7.792-2.188,12.293-0.213c1.212,0.532,3.129,3.703,6.915,10.023c2.878,4.806,3.603,6.341,5.745,7.328
		c2.23,1.029,2.925,0.048,6.513,1.229c2.732,0.899,4.691,2.245,6.395,3.416c2.805,1.928,4.613,3.751,4.622,3.759
		c6.857,6.553,10.818,8.335,19.216,16.675c5.853,5.813,8.666,8.788,11.562,13.425c2.74,4.386,3.952,7.818,6.375,14.68
		c1.495,4.234,3.662,10.876,5.077,19.73c2.794,17.483-0.597,24.538,4.735,39.176c0.708,1.945,1.378,3.495,1.81,4.454
		c1.239,2.556,2.465,4.333,3.674,6.068c0.721,1.036,2.076,2.909,4.007,5.127c2.123,2.437,3.538,3.678,4.335,4.502
		c5.008,5.181,7,16.082,3.089,20.265c-2.822,3.018-6.39,3.983-6.39,3.983c-0.7,0.244-1.834,0.577-2.239,1.536
		c-0.336,0.796-0.067,1.67,0.572,3.168c0.645,1.513,1.332,2.578,1.524,2.87c0.209,0.319,0.412,0.593,0.67,0.947
		c0.778,1.069,1.38,1.803,1.485,1.935c0.945,1.184,2.198,4.354,1.634,7.875c-0.077,0.48-0.389,2.222-1.545,4.124
		c-1.232,2.026-2.92,3.41-4.181,4.025c-0.773,0.377-1.59,0.601-1.59,0.601c-0.609,0.167-1.151,0.247-1.584,0.286
		c1.286,1.159,1.874,1.837,2.167,2.251c0.043,0.06,0.213,0.319,0.478,0.654c0.406,0.514,0.705,0.888,0.755,0.948
		c2.274,2.73,2.108,5.892,2.108,5.892c-0.019,0.373-0.141,2.141-1.346,3.91c-0.342,0.502-1.014,1.465-2.251,2.167
		c-1.105,0.627-2.207,0.794-2.858,0.893c-1.265,0.192-1.506-0.017-2.215,0.274c-0.849,0.348-1.296,0.972-1.929,1.858
		c-0.749,1.047-1.689,2.362-1.641,4.065c0.015,0.525,0.125,0.513,0.575,2.229c0.465,1.777,0.747,2.854,0.875,3.805
		c0.243,1.81-0.066,3.201-0.405,4.728c-0.375,1.685-1.044,4.543-3.294,7.199c-1.078,1.273-2.093,1.996-3.21,2.781
		c-4.603,3.233-9.203,4.028-10.499,4.221c-3.349,0.5-5.914,0.163-8.206-0.155c-5.346-0.743-9.267-2.427-10.677-3.044
		c-24.584-10.754-27.395-13.129-31.352-11.644c-6.459,2.424-8.726,9.913-13.418,25.004c-5.81,18.685-5.329,15.998-6.338,20.135
		c-4.11,16.84-3.051,24.351-2.199,28.319c0.101,0.47,0.461,2.586,1.459,5.235c2.419,6.421,7.253,12.22,18.832,27.231
		c22.051,28.587,16.044,22.498,27.506,36.524c0.538,0.659,1.049,1.282,1.571,1.913c80.257-30.105,137.384-107.523,137.384-198.295
		C966.631,1636.751,871.836,1541.956,754.9,1541.956z"/>
</g>
<rect x="1990.469" y="499.837" style="fill:#D22532;" width="504.519" height="504.05"/>
<path style="fill:#00704D;" d="M1999,1000.892L1999,1000.892l494.277,0.002L2493.279,503h0
	C2220.296,502.999,1999.001,725.913,1999,1000.892z"/>
<path style="fill:#003323;" d="M2493.278,750.05L2493.278,750.05c-137.734,0-249.389,111.636-249.39,249.347v0l249.389,0.001
	L2493.278,750.05z"/>
<rect x="1495.437" y="1491.403" style="fill:#D22532;" width="499.775" height="508.597"/>
<rect x="2491.996" y="999.825" style="fill:#F7F6F5;" width="508.004" height="499.562"/>
<rect x="1995.213" y="1491.001" style="fill:#F7F6F5;" width="503.515" height="508.999"/>
<path style="fill:#7F182A;" d="M1496.184,1497.399L1496.184,1497.399h499.027l0,502.601h0
	C1719.606,2000,1496.184,1774.977,1496.184,1497.399z"/>
<path style="fill:#591221;" d="M1995.212,1746.786L1995.212,1746.786c-136.356,0-246.895-111.655-246.895-249.389v0l246.895,0
	L1995.212,1746.786z"/>
<rect x="2493.001" y="1498.105" style="fill:#00704D;" width="506.999" height="501.895"/>
<rect x="1986.234" y="999.825" style="fill:#00AA6D;" width="506.508" height="499.562"/>
<path style="fill:#003323;" d="M1993.716,1001.109L1993.716,1001.109l0,249.136h0c138.217,0,250.264,111.544,250.264,249.141v0
	l250.259,0v0C2494.24,1224.194,2270.147,1001.108,1993.716,1001.109z"/>
<rect x="1495.437" y="499.837" style="fill:#AF2031;" width="503.562" height="505.759"/>
<rect x="1495.437" y="1001.106" style="fill:#008C5D;" width="499.774" height="498.279"/>
<path style="fill:#F7F6F5;" d="M1995.211,1001.32L1995.211,1001.32l0,249.031h0c-137.803,0-249.515,111.497-249.515,249.035v0
	l-249.51,0v0C1496.186,1224.311,1719.607,1001.32,1995.211,1001.32z"/>
<rect x="2493.493" y="499.837" style="fill:#111111;" width="506.507" height="498.278"/>
<path style="fill:#7F182A;" d="M2492.535,503L2492.535,503l-0.002,497.995l507.467,0.001v0
	C3000,725.961,2772.801,503.001,2492.535,503z"/>
<path style="fill:#F7F6F5;" d="M2741.922,999.824L2741.922,999.824c0-136.869-111.655-247.824-249.388-247.824h0l0,247.824
	L2741.922,999.824z"/>
<polygon style="fill:#003323;" points="3000,1498.105 2999.998,1997.667 2491,1498.103 "/>
<polygon style="fill:#2B2B2B;" points="2999.999,1494.897 3000,999.826 2490.872,999.824 "/>
<rect x="1993.819" style="fill:#2B2B2B;" width="504.519" height="502.768"/>
<path style="fill:#111111;" d="M2497.91,0.001L2497.91,0.001l0,502.801h-499.349v-0.001
	C1998.562,225.112,2222.128,0.001,2497.91,0.001z"/>
<path style="fill:#F7F6F5;" d="M2248.563,502.802L2248.563,502.802c0-137.734,111.637-249.389,249.348-249.389h0v249.389H2248.563z"
	/>
<rect x="1498.787" style="fill:#00AA6D;" width="498.279" height="501.305"/>
<rect x="2496.842" style="fill:#003323;" width="503.158" height="502.305"/>
<path style="fill:#00704D;" d="M3000,503.797L3000,503.797l-504.655,0V0h0C2774.059,0,3000,225.557,3000,503.797z"/>
<path style="fill:#008C5D;" d="M2494.925,253.413L2494.925,253.413c137.711,0,249.348,111.655,249.348,249.389v0h-249.348V253.413z"
	/>
<g>
	<path style="fill:#591221;" d="M2162.377,1948.02c4.678-31.906,7.434-50.699,13.077-74.852
		c6.553-28.051,9.269-30.237,15.449-59.939c7.917-38.057,8.438-57.641-1.552-63.998c-2.146-1.366-4.614-2.041-4.614-2.041
		c-8.607-2.354-14.794,4.516-21.324,4.988c-11.289,0.816-19.741-5.264-32.553-14.48c-12.402-8.921-30.7-22.083-29.16-36.666
		c0.673-6.373,4.904-10.831,2.506-13.9c-2.726-3.49-9.531,0.557-16.548-2.21c-3.274-1.291-8.452-4.798-12.612-18.227
		c-1.914-6.177-3.965-15.63-4.949-27.85c-22.025,33.4-34.857,73.399-34.857,116.4c0,86.786,52.222,161.363,126.95,194.057
		C2162.252,1948.875,2162.314,1948.45,2162.377,1948.02z"/>
	<path style="fill:#591221;" d="M2246.97,1543.514c-3.345,0-6.669,0.087-9.976,0.241c0.975,0.895,2.162,1.797,4.195,2.965
		c12.451,7.156,20.434,3.536,24.018,10.071c0.669,1.22,0.168,0.939,4.125,12.943c1.131,3.431,1.542,4.574,2.778,5.414
		c3.637,2.47,7.792-2.188,12.293-0.213c1.212,0.532,3.129,3.703,6.915,10.024c2.878,4.806,3.603,6.341,5.745,7.328
		c2.229,1.029,2.925,0.048,6.513,1.229c2.732,0.899,4.691,2.245,6.395,3.416c2.805,1.928,4.613,3.751,4.621,3.759
		c6.857,6.553,10.818,8.335,19.217,16.675c5.853,5.813,8.666,8.788,11.562,13.425c2.74,4.386,3.952,7.818,6.375,14.68
		c1.495,4.234,3.662,10.876,5.077,19.73c2.795,17.483-0.597,24.538,4.735,39.176c0.708,1.945,1.378,3.495,1.81,4.454
		c1.239,2.555,2.465,4.333,3.674,6.068c0.721,1.036,2.076,2.909,4.008,5.128c2.123,2.437,3.538,3.678,4.334,4.502
		c5.008,5.181,7,16.082,3.089,20.265c-2.822,3.018-6.39,3.983-6.39,3.983c-0.699,0.244-1.834,0.577-2.239,1.536
		c-0.336,0.796-0.067,1.67,0.572,3.168c0.645,1.513,1.332,2.578,1.524,2.87c0.209,0.319,0.412,0.593,0.67,0.947
		c0.778,1.069,1.38,1.803,1.485,1.935c0.945,1.184,2.198,4.354,1.634,7.875c-0.077,0.48-0.389,2.222-1.545,4.124
		c-1.232,2.026-2.92,3.41-4.181,4.025c-0.773,0.377-1.59,0.601-1.59,0.601c-0.609,0.167-1.151,0.247-1.584,0.286
		c1.286,1.16,1.874,1.837,2.167,2.251c0.043,0.061,0.213,0.319,0.478,0.654c0.406,0.514,0.705,0.888,0.755,0.948
		c2.274,2.73,2.108,5.892,2.108,5.892c-0.019,0.373-0.141,2.141-1.346,3.91c-0.342,0.502-1.014,1.466-2.251,2.167
		c-1.105,0.627-2.207,0.794-2.858,0.893c-1.265,0.192-1.506-0.017-2.215,0.274c-0.849,0.348-1.296,0.972-1.929,1.858
		c-0.749,1.047-1.689,2.362-1.641,4.065c0.015,0.525,0.125,0.513,0.575,2.229c0.465,1.777,0.747,2.854,0.875,3.805
		c0.243,1.81-0.066,3.201-0.405,4.728c-0.375,1.685-1.043,4.543-3.293,7.199c-1.078,1.273-2.094,1.996-3.21,2.781
		c-4.603,3.233-9.203,4.028-10.499,4.221c-3.349,0.5-5.914,0.163-8.206-0.156c-5.346-0.743-9.267-2.427-10.677-3.043
		c-24.584-10.754-27.395-13.129-31.352-11.644c-6.459,2.424-8.726,9.913-13.418,25.004c-5.81,18.684-5.328,15.998-6.338,20.135
		c-4.109,16.84-3.051,24.351-2.199,28.319c0.101,0.47,0.461,2.586,1.459,5.234c2.419,6.421,7.253,12.22,18.832,27.231
		c22.051,28.587,16.043,22.498,27.506,36.524c0.538,0.659,1.049,1.282,1.571,1.913c80.257-30.105,137.384-107.524,137.384-198.295
		C2458.701,1638.309,2363.906,1543.514,2246.97,1543.514z"/>
</g>
<path style="fill:#004B36;" d="M1747.927,48.121c114.421,0,207.178,92.757,207.178,207.178c0,74.16-38.974,139.207-97.547,175.81
	c-1.455-6.687-3.323-13.909-5.72-21.703c-6.084-19.776-13.959-38.053-18.723-49.11c-3.504-8.131-10.93-24.842-10.581-46.556
	c0.021-1.323-0.003-2.846,0.21-4.892c1.975-19.004,11.589-33.789,17.01-42.175c7.992-12.365,16.956-26.253,22.303-40.179
	c12.568-32.733,4.276-63.477,2.898-68.327c-2.764-9.724-10.582-31.964-31.21-50.416c-38.138-34.114-88.674-27.2-105.264-23.823
	c-15.255,3.105-52.965,10.78-71.653,43.029c-14.976,25.843-12.86,59.053-10.52,66.008c1.545,4.592,1.87,7.02,2.501,11.879
	c0.304,2.342,0.512,4.67,0,7.502c-0.35,1.936-0.75,4.303-2.501,6.565c-1.217,1.572-2.73,2.4-5.731,4.077
	c-2.476,1.383-3.701,1.717-6.464,3.509c-0.841,0.546-1.87,1.255-2.955,2.401c-0.576,0.608-1.362,1.451-2.031,2.77
	c-0.89,1.754-1.064,3.343-1.108,4.063c-0.073,1.193-0.191,3.093,0.923,4.801c0.426,0.653,1.041,1.144,2.273,2.126
	c2.429,1.939,3.058,1.791,3.523,2.84c0.492,1.112,0.385,2.648-0.255,3.714c-0.471,0.785-0.884,0.846-2.583,2.247
	c-0.448,0.37-1.51,1.245-2.218,2.001c-1.403,1.497-2.551,3.853-2.586,5.725c-0.09,4.842,7.072,7.027,6.279,9.972
	c-0.541,2.01-4.09,1.937-4.986,4.986c-0.319,1.086-0.211,2.322-0.185,2.585c0.148,1.497,0.702,2.562,0.923,2.955
	c0.608,1.077,1.328,1.717,1.477,1.847c2.104,1.829,3.893,0.641,5.7,2.089c1.925,1.542,1.896,4.497,1.89,4.836
	c-0.031,1.847-0.931,2.234-1.265,4.542c-0.285,1.971-0.105,3.521,0,4.376c0.233,1.468,0.722,3.612,1.876,5.939
	c7.82,15.77,35.081,17.544,38.706,17.738c5.633,0.302,13.081-0.02,24.4,2.028c4.221,0.764,5.891,1.284,6.44,1.481
	c3.093,1.107,13.306,4.763,18.672,15.44c0,0,0,0,0,0c4.918,7.377,3.769,17.531,1.214,24.088c-0.689,1.767-1.468,2.965-1.839,3.561
	c-10.492,16.889-15.738,25.333-23.772,34.842c-11.106,13.146-19.707,33.199-25.029,47.734
	c-79.801-28.798-136.849-105.196-136.849-194.925C1540.749,140.878,1633.505,48.121,1747.927,48.121z"/>
<g>
	<path style="fill:#00AA6D;" d="M111.538,1420.75c5.334-19.434,12.45-40.513,21.941-62.711c2.888-13.48,6.566-30.239,11.257-51.076
		c0.52-2.311,2.427-8.304,6.267-14.985c0.162-0.282,0.358-0.53,0.358-0.53c0.469-0.683,1.503-1.169,3.282-1.379
		c1.047-0.124,2.024-0.187,2.932-0.208c6.18-62.314-37.672-83.934-29.189-152.564c1.786-14.447,4.924-37.495,21.774-59.125
		c3.336-4.283,7.005-8.221,10.927-11.839c-72.721,33.96-123.118,107.734-123.118,193.291
		C37.969,1323.968,66.472,1381.655,111.538,1420.75z"/>
	<path style="fill:#00AA6D;" d="M294.689,1050.84c8.101,4.302,16.385,9.938,23.888,17.315c6.021,5.919,15.267,17.842,17.824,23.664
		c0.831,1.892,1.891,4.416,1.891,4.416c0.788,1.875,1.478,3.564,2.061,5.018c0,0,0.961,2.393,1.736,4.409
		c4.038,10.506,5.272,17.578,5.272,17.578s1.671,9.575,0.296,15.9c-0.016,0.077-0.079,0.363-0.152,0.753
		c-0.22,1.182-0.56,3.559-0.271,6.396c0.147,1.434,0.432,4.241,1.949,6.795c0.38,0.64,0.775,1.069,0.999,1.328
		c4.583,5.302,12.391,11.139,12.391,11.14c8.455,6.321,9.975,7.53,11.845,10.125c2.154,2.989,2.826,5.117,3.131,6.468
		c0.241,1.07,1.068,5.275-0.953,9.839c-0.379,0.856-1.602,3.54-4.323,5.756c-2.787,2.271-4.407,1.822-5.265,3.697
		c-1.16,2.537,0.616,5.964,1.057,6.816c0.369,0.71,0.784,1.28,1.615,2.418c1.491,2.042,2.326,2.41,3.3,4.007
		c0.717,1.177,1.079,2.268,1.261,2.944c0.211,0.786,0.91,3.531-0.215,6.476c-0.471,1.232-1.144,2.195-1.354,2.486
		c-0.503,0.695-1.509,1.905-2.004,2.406c-0.005,0.005-0.012,0.012-0.02,0.022c-0.335,0.416,0.722,1.719,1.558,2.937
		c0.176,0.255,0.736,1.062,1.187,1.809c0.261,0.432,0.423,0.776,0.527,1.03c0,0,0.084,0.201,0.149,0.388
		c0.362,1.047,0.277,3.186-0.487,4.474c-0.024,0.04-0.087,0.149-0.175,0.28c-0.182,0.273-0.42,0.571-0.978,1.235
		c-0.678,0.807-1.342,1.625-2.023,2.428c-1.515,1.785-2.49,4.587-2.511,6.902c-0.019,2.171,0.735,3.501,1.311,5.025
		c2.167,5.733,0.777,11.494,0.323,13.378c-1.719,7.131-6.992,11.389-8.617,12.701c-5.453,4.404-12.724,6.554-22.443,6.789
		c-15.554,0.375-19.481-2.662-28.375-1.404c-1.573,0.223-3.913,0.666-6.718,1.656c-1.231,0.977-3.144,2.669-4.932,5.176
		c-3.739,5.244-3.635,9.437-6.167,15.617c-2.712,6.622-4.711,6.295-6.579,10.867c-0.878,2.148-1.313,4.323-1.45,6.458
		c7.66,3.164,16.97,8.191,17.449,15.248c0.231,3.398-1.65,6.029-2.271,6.974c-2.014,3.06-3.436,7.819-3.371,15.403
		c8.577,20.653,13.104,28.228,13.104,28.228c14.082,26.687,14.789,26.986,17.792,34.67c4.16,10.644,6.823,20.355,8.558,28.237
		c75.826-32.68,128.914-108.083,128.914-195.895C464.424,1156.765,391.593,1070.924,294.689,1050.84z"/>
</g>
</svg>
